<svg width="111" height="51" viewBox="0 0 111 51" fill="none" xmlns="http://www.w3.org/2000/svg">
<rect width="111" height="51" fill="#F5F5F5"/>
<g id="OurStory">
<rect width="1440" height="4503" transform="translate(-1056.4 -206.447)" fill="white"/>
<g id="Frame 800">
<g id="Group">
<g id="Group_2">
<path id="Vector" d="M52.4269 34.3435C52.4269 34.3435 52.4303 34.3385 52.4298 34.3359C52.4221 34.3408 52.4307 34.3411 52.4269 34.3435Z" fill="#F9F4E8"/>
<path id="Vector_2" d="M54.0411 33.7082L54.0379 33.7103C54.0645 33.6999 54.0976 33.685 54.1541 33.6619L54.0411 33.7082Z" fill="#F9F4E8"/>
<path id="Vector_3" d="M44.8304 37.8186L44.8631 37.8012C44.8631 37.8012 44.8394 37.8143 44.8304 37.8186Z" fill="#F9F4E8"/>
<path id="Vector_4" d="M47.7627 36.3909C47.7627 36.3909 47.7469 36.4059 47.7332 36.4142C47.7492 36.4037 47.7583 36.3974 47.7627 36.3909Z" fill="#F9F4E8"/>
<path id="Vector_5" d="M55.3147 33.4543L55.237 33.4701C55.237 33.4701 55.2728 33.4684 55.3147 33.4543Z" fill="#F9F4E8"/>
<path id="Vector_6" d="M56.1147 33.0239C56.1147 33.0239 56.0919 33.0366 56.0777 33.0451C56.0949 33.0367 56.1179 33.0263 56.1147 33.0239Z" fill="#F9F4E8"/>
<path id="Vector_7" d="M31.8888 47.1855C31.8666 47.2089 31.8526 47.2283 31.8387 47.2499L31.8888 47.1855Z" fill="#F9F4E8"/>
<path id="Vector_8" d="M54.5443 33.8103C54.51 33.8361 54.4148 33.8705 54.4215 33.8754C54.4654 33.8523 54.5307 33.8279 54.5443 33.8103Z" fill="#F9F4E8"/>
<path id="Vector_9" d="M41.195 40.6917L41.172 40.7064C41.172 40.7064 41.1873 40.6958 41.195 40.6917Z" fill="#F9F4E8"/>
<path id="Vector_10" d="M32.1535 47.2282L32.1788 47.2092L32.1671 47.2154C32.1671 47.2154 32.1581 47.224 32.1535 47.2282Z" fill="#F9F4E8"/>
<path id="Vector_11" d="M36.7379 42.5678C36.7379 42.5678 36.7565 42.5494 36.7676 42.5393C36.7508 42.5534 36.7434 42.5617 36.7379 42.5678Z" fill="#F9F4E8"/>
<path id="Vector_12" d="M31.8829 47.25L31.8546 47.2862C31.8669 47.2736 31.877 47.2608 31.8829 47.25Z" fill="#F9F4E8"/>
<path id="Vector_13" d="M47.9679 36.3057L47.9958 36.2953C47.9958 36.2953 47.9883 36.2951 47.9679 36.3057Z" fill="#F9F4E8"/>
<path id="Vector_14" d="M47.0617 37.2759C47.0381 37.2903 47.0106 37.3157 47.0003 37.3309C47.0238 37.3142 47.043 37.2996 47.0617 37.2759Z" fill="#F9F4E8"/>
<path id="Vector_15" d="M48.3743 36.6648C48.3743 36.6648 48.3486 36.6716 48.3275 36.6785C48.336 36.6763 48.3532 36.6717 48.3743 36.6648Z" fill="#F9F4E8"/>
<path id="Vector_16" d="M44.0881 39.8281C44.4095 39.6309 44.8176 39.3701 45.1451 39.1801C45.1968 39.1305 45.3004 39.0676 45.4013 39.0046L45.4376 39.0064L45.5142 38.9536C45.5573 38.9353 45.4507 38.9958 45.5232 38.9608L45.5405 38.9345C45.5405 38.9345 45.767 38.8052 45.6408 38.8987L45.9787 38.7001C46.056 38.6563 46.0037 38.665 46.092 38.6196C46.1165 38.6117 46.0685 38.6388 46.0825 38.6395C46.35 38.5009 46.3238 38.452 46.5668 38.3212L46.5511 38.3341C46.5825 38.3084 46.6598 38.2646 46.6568 38.2622C46.6044 38.2687 46.6286 38.2926 46.545 38.3269C46.5301 38.3149 46.624 38.2697 46.6042 38.2664C46.666 38.2377 46.6864 38.2138 46.7315 38.1866C46.823 38.1458 46.9315 38.0741 47.0099 38.044C47.0413 38.0183 47.0691 37.9834 47.1542 37.9333C47.23 37.9053 47.1527 37.9491 47.241 37.9036L47.2427 37.8901C47.312 37.8504 47.3043 37.8591 47.3075 37.8638C47.3794 37.822 47.3542 37.8208 47.4505 37.7712L47.4087 37.8054C47.475 37.7633 47.5045 37.7489 47.5976 37.6946C47.6008 37.6993 47.5663 37.7203 47.5341 37.7368C47.6021 37.7152 47.6161 37.6819 47.6428 37.6674C47.6318 37.6691 47.5624 37.7065 47.5827 37.6825C47.6307 37.6554 47.6667 37.6187 47.713 37.6051L47.6712 37.6393C47.7638 37.5782 47.71 37.6027 47.8277 37.5405C47.8224 37.5448 47.828 37.5451 47.8282 37.5474C47.8857 37.5003 47.9933 37.4513 48.0972 37.393L48.0816 37.4058C48.1185 37.3804 48.1337 37.3608 48.1577 37.3484C48.0933 37.3792 48.1036 37.3683 48.0868 37.3675C48.1843 37.3316 48.1862 37.2863 48.3284 37.2185C48.3316 37.2232 48.3082 37.2448 48.2677 37.2609C48.2427 37.2959 48.2518 37.3054 48.1807 37.3563C48.2257 37.3268 48.2813 37.291 48.2767 37.3022L48.2752 37.2839C48.3045 37.2673 48.3312 37.2527 48.3525 37.2402C48.3542 37.2266 48.2737 37.2657 48.3344 37.2234C48.4085 37.1749 48.3945 37.2082 48.3992 37.1971C48.4998 37.1319 48.427 37.1622 48.534 37.1064C48.5261 37.1128 48.5104 37.1256 48.4996 37.1296C48.5801 37.0905 48.6805 37.023 48.7195 37.0226C48.7119 37.0313 48.7178 37.0362 48.6855 37.0504L48.6799 37.0501C48.6172 37.1014 48.7462 37.0081 48.7397 37.0305C48.7201 37.0295 48.8295 36.9692 48.8777 36.9444L48.85 36.9475C48.9668 36.8399 48.8681 36.9643 49.0169 36.8742C49.1067 36.8129 48.9766 36.8926 49.0293 36.8544C49.0987 36.8171 49.1316 36.8096 49.2244 36.7508C49.254 36.7386 49.3186 36.7101 49.3384 36.7134C49.3912 36.6775 49.5227 36.6137 49.5456 36.5876C49.4327 36.6387 49.4616 36.6515 49.3242 36.7104L49.3444 36.6842C49.4243 36.6383 49.5223 36.5751 49.5841 36.5465C49.5679 36.5525 49.5623 36.5522 49.5673 36.5456C49.6816 36.4765 49.7018 36.4503 49.8194 36.3881C49.8444 36.3871 49.7776 36.4223 49.7324 36.4496C49.8158 36.4129 49.8125 36.4059 49.9275 36.3459C49.9471 36.3469 49.8502 36.3897 49.8483 36.4009L49.9706 36.3276L49.9734 36.3278C49.9719 36.3096 50.0695 36.2759 50.141 36.2296C50.3223 36.1275 50.3283 36.0983 50.4178 36.0325C50.4502 36.0205 50.4613 36.0188 50.4536 36.0275C50.4023 36.0476 50.4135 36.0481 50.4032 36.059C50.4616 36.0233 50.5566 35.9918 50.5279 36.0153C50.6207 35.9564 50.4844 36.029 50.5372 35.9931L50.6733 35.9182C50.6485 35.9215 50.5977 35.9485 50.6638 35.9041C50.7196 35.8707 50.7518 35.8541 50.8264 35.8125C50.8188 35.8212 50.8623 35.8075 50.8063 35.8387C50.8466 35.8203 50.9052 35.7869 50.9205 35.7696C50.8292 35.8126 51.0505 35.6876 50.9747 35.7156L51.066 35.6725C51.0473 35.6829 51.0505 35.6876 51.021 35.702C51.0568 35.697 51.0846 35.6621 51.1138 35.6431C51.1461 35.6289 51.2234 35.5851 51.2346 35.5857C51.2555 35.5686 51.3279 35.5336 51.3445 35.5322C51.3817 35.5091 51.3384 35.5251 51.346 35.5164L51.4849 35.4417C51.4989 35.4424 51.5301 35.4485 51.5116 35.4612C51.5564 35.4294 51.5069 35.4383 51.5844 35.3968C51.5536 35.4292 51.7002 35.3458 51.6482 35.3932C51.7026 35.3755 51.8306 35.3047 51.8943 35.2648C51.9253 35.2346 51.8137 35.3016 51.8073 35.2922C51.9991 35.1816 51.9802 35.1557 52.1275 35.0814L52.0872 35.0998C52.1694 35.0472 52.1615 35.0536 52.206 35.0173C52.1966 35.0395 52.3454 34.9835 52.4893 34.9022C52.494 34.8911 52.3947 34.9383 52.407 34.9185L52.503 34.8643C52.503 34.8643 52.5034 34.8689 52.4901 34.8773C52.5724 34.827 52.6732 34.798 52.6798 34.7756L52.7884 34.7402L52.7449 34.7539C52.7449 34.7539 52.8482 34.6865 52.8667 34.6738C52.9595 34.615 53.0028 34.599 53.0677 34.575C53.0459 34.5807 52.9886 34.596 53.0659 34.5523C53.0866 34.5669 53.2402 34.468 53.252 34.4754C53.2841 34.4588 53.3461 34.4325 53.3425 34.4232L53.3519 34.435C53.3394 34.4185 53.457 34.3563 53.5449 34.3063C53.5499 34.3338 53.6409 34.2521 53.7045 34.2462C53.7029 34.2257 53.8561 34.1563 53.8574 34.1382C53.9269 34.1009 53.9364 34.1149 53.9582 34.1092L53.9844 34.0879C54.0279 34.0742 54.1589 34.0059 54.2422 33.9669L54.3023 33.9178L54.3322 33.9079C54.3398 33.8992 54.3957 33.8657 54.3552 33.8819L54.3953 33.8612C54.383 33.847 54.4457 33.8297 54.5172 33.7834C54.5389 33.7754 54.5366 33.7821 54.5234 33.7905C54.5635 33.7698 54.5536 33.7852 54.5809 33.7775C54.5484 33.7895 54.6959 33.6834 54.5828 33.7322C54.5688 33.7315 54.6272 33.6959 54.6675 33.6775L54.7063 33.6749L54.737 33.6401C54.7956 33.6068 54.8313 33.5995 54.8796 33.5769C54.8288 33.6039 54.7967 33.6544 54.9223 33.5882C54.8557 33.6256 54.8297 33.6493 54.7978 33.6681C54.8273 33.6537 54.8407 33.6476 54.8039 33.6752C54.9025 33.6189 54.8299 33.6516 54.9287 33.5975C54.9352 33.6092 54.9651 33.5994 55.0591 33.5564L54.9834 33.5844C54.9834 33.5844 54.9912 33.578 54.9938 33.5759C54.9669 33.5881 54.9587 33.59 54.9475 33.5894C54.9662 33.579 55.0476 33.5173 55.0724 33.514C54.9528 33.5511 55.2341 33.411 55.158 33.4344C55.1684 33.4258 55.2351 33.3883 55.2491 33.389C55.1751 33.4398 55.3254 33.3679 55.3209 33.3813C55.3472 33.3622 55.2451 33.4092 55.2847 33.3817C55.3355 33.3548 55.379 33.3411 55.4089 33.3312L55.3932 33.3441L55.4738 33.3073C55.4813 33.2963 55.3898 33.3371 55.4591 33.2975C55.4807 33.2895 55.55 33.2498 55.5532 33.2545C55.5272 33.2782 55.5632 33.2755 55.5046 33.3088C55.5554 33.2819 55.713 33.1967 55.637 33.2224L55.6986 33.1915C55.6553 33.2075 55.542 33.254 55.6622 33.1897L55.665 33.1898L55.7391 33.1413L55.7826 33.1277C55.7826 33.1277 55.7901 33.1167 55.8196 33.1023C55.828 33.1027 55.8603 33.0884 55.8634 33.0931C55.9545 33.0478 55.9432 33.045 55.9508 33.0363C56.0016 33.0093 56.0206 33.0035 56.0053 33.0208C56.0752 32.988 56.1956 32.926 56.2525 32.9062C56.343 32.854 56.2308 32.9142 56.2783 32.8803C56.3768 32.858 56.5953 32.7328 56.7424 32.6562C56.6869 32.6603 56.7823 32.6333 56.7969 32.6068C56.768 32.628 56.9569 32.5513 56.823 32.6195L56.9035 32.5804C56.969 32.5633 56.7726 32.651 56.868 32.624C56.9593 32.5809 57.0056 32.5333 57.1165 32.4912C57.0883 32.5216 57.1966 32.4476 57.182 32.4741C57.1637 32.4891 57.1312 32.5011 57.1019 32.5177L57.1209 32.5119C57.3255 32.4223 57.1678 32.4711 57.269 32.4127C57.3924 32.3531 57.372 32.377 57.3834 32.3798C57.4025 32.374 57.4641 32.3431 57.496 32.3242C57.4269 32.3661 57.3528 32.3806 57.3816 32.3571C57.4448 32.3466 57.5643 32.2732 57.5961 32.2521C57.4118 32.3178 57.4751 32.3073 57.2961 32.3687C57.2778 32.3836 57.2871 32.3954 57.1872 32.4358C57.2457 32.4002 57.1785 32.4308 57.1594 32.4367C57.1845 32.4357 57.0926 32.4719 57.0661 32.4887C57.0332 32.4961 57.1154 32.4436 57.0103 32.4882L57.0041 32.5151C56.9636 32.5312 57.0109 32.495 56.928 32.5385C56.9646 32.5086 56.905 32.5306 57.0176 32.4749C56.8683 32.5242 56.8115 32.5803 56.7129 32.6366C56.7207 32.6302 56.7234 32.6281 56.7312 32.6217C56.7129 32.6366 56.6728 32.6573 56.6407 32.6738C56.5679 32.7042 56.6881 32.6399 56.6661 32.6434L56.5563 32.6991L56.5535 32.699C56.527 32.7158 56.5003 32.7303 56.4865 32.7319C56.5126 32.7105 56.5227 32.6974 56.541 32.6825L56.4351 32.752C56.4426 32.741 56.3297 32.7921 56.4096 32.7462L56.2384 32.8352L56.2104 32.8338C56.173 32.8546 56.1732 32.8569 56.2244 32.8345C56.1624 32.8609 55.98 32.9833 55.991 32.9475C55.8635 33.0251 55.8122 33.0452 55.652 33.1325C55.7687 33.0589 55.4926 33.1948 55.6233 33.1219C55.5398 33.1586 55.5385 33.1767 55.4799 33.21C55.4179 33.2364 55.4326 33.2122 55.4883 33.1764L55.422 33.2185L55.4192 33.2183L55.3664 33.2543C55.2908 33.2845 55.3384 33.2529 55.2686 33.2857L55.2642 33.3013L55.2101 33.3213C55.232 33.3156 55.1948 33.3387 55.144 33.3656L55.1412 33.3655L55.0852 33.3967C55.138 33.3608 55.0288 33.4234 55.0468 33.4038C54.9932 33.4307 54.9932 33.4306 54.8998 33.4827L54.9247 33.4794C54.8076 33.5484 54.9075 33.474 54.8057 33.5256L54.8225 33.5264C54.6607 33.5932 54.5854 33.662 54.4667 33.7105C54.5253 33.6772 54.5003 33.6782 54.5033 33.6806C54.4154 33.7306 54.2627 33.8069 54.1809 33.8641C54.1342 33.8731 54.1204 33.8746 54.0183 33.9217C53.9488 33.9591 53.941 33.9655 53.9257 33.9829C53.8531 34.0155 53.7336 34.0889 53.722 34.0838C53.7147 34.097 53.6604 34.1147 53.629 34.1404L53.6206 34.14L53.6322 34.1451C53.4913 34.1947 53.441 34.2625 53.3031 34.3146L53.3187 34.3018L53.2737 34.3313C53.2654 34.3309 53.2784 34.3202 53.2753 34.3155L53.0374 34.442L53.0915 34.422C53.0436 34.4491 53.0204 34.4729 52.9556 34.4991C53.0344 34.4395 52.8781 34.5406 52.8503 34.5415L52.8981 34.5121C52.8537 34.5371 52.8371 34.5506 52.8485 34.5527C52.7633 34.6029 52.7693 34.5737 52.6956 34.6267L52.7544 34.5956C52.7762 34.5899 52.7422 34.6177 52.7049 34.6385C52.6941 34.6425 52.6616 34.6545 52.6909 34.6378C52.6272 34.6777 52.5147 34.7333 52.4883 34.7524C52.448 34.7708 52.4527 34.7597 52.4712 34.747C52.3306 34.8353 52.4015 34.7821 52.2609 34.8704L52.2578 34.8657L52.213 34.8974L52.1291 34.9295L52.1618 34.9198C52.1138 34.9469 52.0875 34.966 52.0259 34.997L52.0412 34.9796C51.9055 35.059 51.8665 35.0593 51.7447 35.1394C51.7339 35.1434 51.7524 35.1307 51.763 35.1244C51.6521 35.2005 51.655 35.1667 51.5496 35.243C51.5575 35.2366 51.5384 35.2425 51.5409 35.2381L51.4907 35.2719L51.4843 35.2625L51.4565 35.2974L51.41 35.3086L51.3917 35.3236C51.3098 35.3445 51.2446 35.4002 51.1443 35.436L51.1723 35.4374C50.9963 35.5692 50.6882 35.6899 50.4521 35.8368L50.4457 35.8275L50.3563 35.8933C50.2915 35.9195 50.3794 35.8695 50.3548 35.8751C50.2514 35.9402 50.327 35.91 50.2047 35.9832C50.1321 36.0159 50.2172 35.9657 50.2435 35.9466C50.1321 36.0159 49.962 36.1185 49.8707 36.1616C49.8707 36.1616 49.8656 36.1682 49.8711 36.1662C49.7969 36.2146 49.6872 36.2704 49.6018 36.3183C49.5987 36.3136 49.62 36.301 49.6384 36.2883C49.6063 36.3049 49.5608 36.3275 49.5373 36.3468L49.5604 36.323C49.491 36.3603 49.369 36.4382 49.344 36.4392C49.355 36.4375 49.3612 36.4446 49.3052 36.4758C49.2529 36.4845 49.1594 36.5683 49.0546 36.6175C49.0623 36.6088 49.1288 36.569 49.1075 36.5816C49.0565 36.6063 49.0225 36.634 48.9884 36.6596L48.993 36.6485L48.7888 36.7766C48.7365 36.7853 48.5892 36.8936 48.5907 36.8778C48.5134 36.9216 48.6633 36.8452 48.5675 36.9016C48.5349 36.9113 48.4826 36.9541 48.4762 36.9447L48.4841 36.9383L48.4176 36.978L48.4486 36.9478C48.393 36.9836 48.362 37.0138 48.3708 37.0188C48.309 37.0475 48.2374 37.0938 48.1992 37.1032L48.2149 37.0904C48.0635 37.1826 47.9244 37.221 47.8249 37.3C47.814 37.3039 47.8139 37.3017 47.8325 37.2913L47.7366 37.3454L47.7491 37.3279L47.6064 37.4251L47.6033 37.4204C47.4965 37.4786 47.3342 37.5748 47.2041 37.6545L47.2198 37.6417C47.085 37.7325 47.0756 37.7207 46.975 37.7859C46.9776 37.7838 46.9802 37.7817 46.9855 37.7774L46.8897 37.8338L46.908 37.8189C46.8505 37.8659 46.6855 37.9279 46.7396 37.908C46.7082 37.9336 46.6449 37.9781 46.6403 37.9892C46.5364 38.0498 46.605 38.001 46.5353 38.0361C46.458 38.0799 46.4564 38.0934 46.3494 38.1493L46.3462 38.1446C46.2984 38.174 46.2749 38.1932 46.2084 38.233L46.2241 38.2202C46.1294 38.2903 46.0682 38.2917 46.0146 38.3526C45.9637 38.3772 45.8815 38.4298 45.8724 38.4203C45.7452 38.5024 45.6418 38.5675 45.5144 38.6474C45.4728 38.6498 45.4879 38.6642 45.3938 38.7071L45.4134 38.7081C45.2275 38.8213 44.9805 38.9382 44.7761 39.0641L44.7565 39.0631L44.7283 39.0934C44.4992 39.2249 44.2062 39.3939 44.0253 39.5006C43.9727 39.5388 43.8993 39.5963 43.8005 39.6504L43.8084 39.6439C43.6547 39.7429 43.4874 39.8456 43.3063 39.95C43.3112 39.9412 43.2923 39.9493 43.308 39.9365C43.2798 39.9668 43.2072 39.9995 43.1699 40.0203L43.221 39.9979C43.1848 40.0324 43.1015 40.0713 43.0662 40.0831L43.0009 40.1366C43.0009 40.1366 42.9846 40.1426 42.9818 40.1424L42.9744 40.1534L42.9146 40.1731C42.8989 40.1859 42.7983 40.2512 42.7835 40.2754C42.7725 40.2771 42.6924 40.3207 42.7481 40.285L42.4581 40.4565L42.5091 40.4318C42.5287 40.4328 42.4495 40.4878 42.3986 40.5125C42.4456 40.474 42.3866 40.5028 42.3513 40.5146C42.32 40.5403 42.3946 40.4987 42.3819 40.5139C42.3427 40.546 42.2421 40.6112 42.2098 40.6255L42.2333 40.6063C42.1726 40.6486 42.1178 40.6595 42.0541 40.6994C42.007 40.7378 41.9533 40.7624 41.9867 40.7618C41.9073 40.8145 41.9404 40.7753 41.9111 40.792C41.8827 40.8201 41.7572 40.8886 41.7298 40.8941C41.7135 40.9341 41.4899 41.0295 41.5 41.0504L41.4165 41.0871C41.4165 41.0871 41.4236 41.1056 41.3707 41.1415C41.3118 41.1703 41.3108 41.1589 41.2864 41.1668L41.2778 41.1981C40.9466 41.3766 40.5685 41.6299 40.2138 41.8276C40.0709 41.9225 39.8993 42.0409 39.7212 42.1477L39.7369 42.1349L39.5586 42.2394L39.6975 42.1647C39.6659 42.188 39.6398 42.2094 39.6026 42.2325C39.4057 42.3474 39.1449 42.4999 38.9312 42.6503C38.817 42.7535 38.8047 42.7052 38.687 42.8014C38.6975 42.7928 38.6971 42.7883 38.7048 42.7796C38.5651 42.8792 38.4859 42.9342 38.3522 43.0387C38.3366 43.0175 38.2542 43.1018 38.2503 43.088L38.2512 43.0994C38.2109 43.1178 38.1286 43.1681 38.1278 43.159L38.0787 43.2065L38.0591 43.2055C37.969 43.2622 37.7869 43.3892 37.7134 43.4105C37.5164 43.5594 37.1693 43.7825 36.8937 43.9592C36.8681 43.9874 36.7887 44.0401 36.7279 44.0802L36.6446 44.1191C36.5867 44.1616 36.5406 44.2114 36.4738 44.2467C36.4738 44.2467 36.4736 44.2444 36.4788 44.2401C36.4181 44.2824 36.3461 44.3219 36.3022 44.3651C36.2307 44.4114 36.156 44.4531 36.1601 44.4351C36.1806 44.4475 36.0091 44.5319 36.0091 44.5319C36.0091 44.5319 35.787 44.6818 35.4407 44.914C35.0973 45.1486 34.6156 45.4647 34.1415 45.8062C33.6704 46.1501 33.167 46.5082 32.7691 46.8263C32.3768 47.1446 32.0586 47.4145 31.9121 47.5682C31.9028 47.5904 31.8404 47.6463 31.889 47.626C31.8395 47.6689 31.7851 47.6866 31.7915 47.696C31.8789 47.6391 31.8127 47.7175 31.9085 47.661L31.8641 47.6974C31.8641 47.6974 31.9158 47.6478 31.9277 47.6575L31.91 47.6452C31.9522 47.6156 31.9789 47.6011 32.0032 47.5909C32.026 47.5626 32.0075 47.5412 32.111 47.4761L32.0874 47.4953C32.1556 47.442 32.1518 47.4645 32.1731 47.452L32.1574 47.4648L32.2319 47.4209C32.1761 47.4544 32.1279 47.5132 32.1645 47.4833C32.2569 47.4199 32.1352 47.5 32.1953 47.4508C32.2319 47.4209 32.2383 47.4303 32.2468 47.433L32.3122 47.3796C32.3264 47.3825 32.2678 47.4159 32.3107 47.3954L32.3832 47.3264C32.4354 47.3177 32.4607 47.2509 32.5364 47.2229C32.4819 47.2724 32.5557 47.2194 32.5564 47.2285L32.7084 47.1091C32.7271 47.0986 32.6776 47.1415 32.7011 47.1223C32.7385 47.1015 32.74 47.0857 32.7557 47.0729C32.7799 47.0627 32.8711 46.9834 32.891 46.9889C33.0101 46.9109 32.9047 46.951 33.0158 46.8772C33.043 46.8695 32.9426 46.937 32.9986 46.9058L33.0953 46.8267C33.0953 46.8267 33.0968 46.845 33.06 46.8726C33.347 46.6647 33.5925 46.5635 33.8332 46.3692C33.8869 46.3447 33.8154 46.391 33.8031 46.4108C33.9728 46.2696 34.1084 46.2219 34.2689 46.1052L34.2602 46.1002C34.5318 45.9437 34.7692 45.7423 35.0558 45.5639L35.0156 45.5846C35.0412 45.5564 35.0993 45.5162 35.1385 45.4841C35.1521 45.4802 35.1351 45.5112 35.2061 45.458C35.1846 45.4683 35.1473 45.4891 35.1495 45.4824C35.4105 45.3321 35.8853 44.9998 36.2772 44.7449C36.7814 44.3959 37.3814 44.0267 37.8835 43.6866C37.8042 43.7394 37.81 43.7079 37.874 43.6726C38.0866 43.5789 38.1459 43.4843 38.3497 43.3856C38.6401 43.1847 38.9586 43.0214 39.2051 42.8296L39.2247 42.8306C39.2728 42.8058 39.2775 42.7947 39.3197 42.765L39.3253 42.7653C39.4343 42.7004 39.5473 42.6154 39.6167 42.578L39.605 42.5706C39.6659 42.5306 39.6509 42.5525 39.706 42.5099L39.7144 42.5103L39.7717 42.461C39.7922 42.4734 39.9521 42.3475 40.0113 42.321C40.0878 42.2681 40.2357 42.1667 40.366 42.0893C40.4015 42.0797 40.5553 41.9831 40.6621 41.9249C40.8503 41.805 41.1207 41.6325 41.3651 41.4837L41.3427 41.4826L41.409 41.4406C41.4146 41.4408 41.4226 41.4367 41.4121 41.4453C41.4799 41.4214 41.5523 41.3525 41.6169 41.3239C41.568 41.3396 41.569 41.351 41.5318 41.3741C41.4728 41.4029 41.5034 41.3682 41.5837 41.3268L41.5893 41.3271L41.6285 41.295C41.6481 41.296 41.6963 41.2712 41.7159 41.2722C41.9226 41.1396 42.0432 41.0459 42.2695 40.9143C42.2599 40.9342 42.4233 40.8176 42.4039 40.853C42.5254 40.7706 42.3653 40.8578 42.4037 40.8167C42.4409 40.7936 42.4723 40.7679 42.4863 40.7686C42.4734 40.7816 42.5325 40.7551 42.5034 40.774L42.591 40.7194C42.591 40.7194 42.5861 40.7283 42.5783 40.7347C42.7446 40.6205 42.9115 40.5472 43.0566 40.4456C43.0613 40.4345 42.99 40.4831 42.9946 40.472C43.1393 40.3658 43.1526 40.3914 43.2924 40.2941L43.2721 40.318C43.3113 40.2859 43.3238 40.2684 43.4149 40.2231C43.4425 40.2199 43.36 40.268 43.326 40.2958C43.3818 40.2623 43.517 40.176 43.4603 40.1981C43.521 40.1558 43.5592 40.1464 43.5994 40.1257C43.5938 40.1254 43.5295 40.1585 43.5609 40.1329C43.6599 40.0811 43.7952 39.9971 43.9097 39.9303C43.9153 39.9306 43.9237 39.931 43.9184 39.9353C43.9916 39.8754 44.0125 39.8923 44.1292 39.8188L44.0881 39.8281Z" fill="#F9F4E8"/>
<path id="Vector_17" d="M48.8154 36.452L48.7682 36.4769C48.7682 36.4769 48.7713 36.4816 48.7532 36.4943L48.8126 36.4519L48.8154 36.452Z" fill="#F9F4E8"/>
<path id="Vector_18" d="M45.9891 37.9216C46.0425 37.8958 45.9833 37.9164 45.9533 37.9255C45.9579 37.9256 45.9632 37.9283 45.9891 37.9216Z" fill="#F9F4E8"/>
<path id="Vector_19" d="M50.0529 35.7734C50.0529 35.7734 50.0392 35.7829 50.0467 35.7832C50.057 35.7761 50.0604 35.7737 50.0529 35.7734Z" fill="#F9F4E8"/>
<path id="Vector_20" d="M54.0742 34.0005C54.0742 34.0005 54.0548 34.0054 54.0451 34.0078C54.0451 34.0078 54.0645 34.0029 54.0742 34.0005Z" fill="#F9F4E8"/>
<path id="Vector_21" d="M53.7661 34.0826C53.7661 34.0826 53.7404 34.0952 53.7234 34.1058C53.7436 34.0976 53.7577 34.0891 53.7661 34.0826Z" fill="#F9F4E8"/>
<path id="Vector_22" d="M49.1569 36.217C49.1569 36.217 49.1378 36.2317 49.1294 36.2403C49.1443 36.2299 49.1506 36.2235 49.1569 36.217Z" fill="#F9F4E8"/>
<path id="Vector_23" d="M53.6797 34.1242L53.6178 34.1484C53.6178 34.1484 53.6178 34.1484 53.6213 34.1486L53.6828 34.1221L53.6797 34.1242Z" fill="#F9F4E8"/>
<path id="Vector_24" d="M54.1476 33.9699C54.1476 33.9699 54.0914 33.9927 54.0717 34.001C54.1052 33.9909 54.1282 33.9805 54.1476 33.9699Z" fill="#F9F4E8"/>
<path id="Vector_25" d="M51.4149 35.1035C51.394 35.131 51.406 35.1162 51.4149 35.1035V35.1035Z" fill="#F9F4E8"/>
<path id="Vector_26" d="M53.5101 34.2482L53.5059 34.2502L53.4955 34.2611L53.5101 34.2482Z" fill="#F9F4E8"/>
<path id="Vector_27" d="M54.4334 33.8714C54.4334 33.8714 54.4092 33.8822 54.4025 33.8866C54.4129 33.8823 54.4271 33.8782 54.4409 33.8717C54.4372 33.8715 54.4334 33.8714 54.4334 33.8714Z" fill="#F9F4E8"/>
<path id="Vector_28" d="M52.3031 34.7428C52.3031 34.7428 52.3193 34.7269 52.3155 34.7267C52.2941 34.7354 52.2838 34.742 52.3031 34.7428Z" fill="#F9F4E8"/>
</g>
</g>
</g>
</g>
</svg>
